Format                                   : Matroska
Format version                           : Version 2
File size                                : 546 MiB
Duration                                 : 1h 20mn
Overall bit rate                         : 950 Kbps
Writing application                      : HandBrake 0.9.8
Writing library                          : libmkv 0.6.5

Video
ID                                       : 1
Format                                   : AVC
Format/Info                              : Advanced Video Codec
Format profile                           : Main@L3.0
Format settings, CABAC                   : Yes
Format settings, ReFrames                : 4 frames
Codec ID                                 : V_MPEG4/ISO/AVC
Duration                                 : 1h 20mn
Bit rate                                 : 739 Kbps
Width                                    : 720 pixels
Height                                   : 480 pixels
Display aspect ratio                     : 16:9
Original display aspect ratio            : 16:9
Frame rate mode                          : Variable
Frame rate                               : 23.976 fps
Standard                                 : NTSC
Color space                              : YUV
Chroma subsampling                       : 4:2:0
Bit depth                                : 8 bits
Scan type                                : Progressive
Bits/(Pixel*Frame)                       : 0.089
Stream size                              : 425 MiB (78%)
Writing library                          : x264 core 120

Language                                 : English
Default                                  : Yes
Forced                                   : No
Color primaries                          : BT.601-6 525, BT.1358 525, BT.1700 NTSC, SMPTE 170M
Transfer characteristics                 : BT.709-5, BT.1361
Matrix coefficients                      : BT.601-6 525, BT.1358 525, BT.1700 NTSC, SMPTE 170M

Audio
ID                                       : 2
Format                                   : AC-3
Format/Info                              : Audio Coding 3
Format profile                           : Dolby Digital
Mode extension                           : CM (complete main)
Codec ID                                 : A_AC3
Duration                                 : 1h 20mn
Bit rate mode                            : Constant
Bit rate                                 : 192 Kbps
Channel(s)                               : 2 channels
Channel positions                        : Front: L R
Sampling rate                            : 48.0 KHz
Bit depth                                : 16 bits
Compression mode                         : Lossy
Stream size                              : 110 MiB (20%)
Language                                 : English
Default                                  : Yes
Forced                                   : No


Movie Info

The story of Ethan Mason, an overly curious 13-year-old whose parents punish him by hiring a babysitter. But not only is his new babysitter a hot sophomore who is way out of Ethan's league, she also happens to be a bloodsucking creature of the night. 